<?xml version="1.0" encoding="utf-8"?>
<!-- Svg Vector Icons : http://www.onlinewebfonts.com/icon -->
<!DOCTYPE svg PUBLIC "-//W3C//DTD SVG 1.1//EN" "http://www.w3.org/Graphics/SVG/1.1/DTD/svg11.dtd">
<svg version="1.1" xmlns="http://www.w3.org/2000/svg" xmlns:xlink="http://www.w3.org/1999/xlink" x="0px" y="0px" viewBox="0 0 256 256" enable-background="new 0 0 256 256" xml:space="preserve">
<metadata> Svg Vector Icons : http://www.onlinewebfonts.com/icon </metadata>
<g><g><g><path fill="#000000" d="M139.8,11.3l-1.3,1.3v24.7v24.7h-33.3c-29.1,0-33.4,0.1-34,0.7c-0.4,0.4-1.8,3.3-3,6.4l-2.2,5.7l-3,0.2c-5.3,0.4-9.8,3.4-12.1,8.1c-0.9,1.8-1.1,2.9-1.1,7.2c0,4.6,0.1,5.3,1.3,7.7c1.6,3.2,4.7,6,7.7,7.1c1.9,0.6,2.3,0.9,2.5,2.2c0.1,0.8,2,15.5,4.2,32.6c8.7,69.2,13.2,103.4,13.6,104.2c1,1.8,1.4,1.8,45.7,1.8l42.7-0.1l1-1c0.9-0.9,1.3-3.5,4.1-25.4c1.8-13.4,4.3-33.3,5.7-44.2c1.4-10.9,3.3-26.4,4.4-34.3c1-8,2.4-19.1,3.1-24.8c1.2-10.2,1.3-10.3,2.4-10.6c2.2-0.5,4.4-1.9,6.3-3.9c3.1-3.2,3.6-4.5,3.8-10.4c0.2-4.7,0.1-5.3-0.9-7.6c-2.3-4.9-6.1-7.8-11.4-8.5l-2.4-0.4l-2.2-5.3c-3-7.7-2.4-7.3-11.2-7.3h-7.3V48.3V34.4H183c20.5,0,21.3,0,22.6-1.8c0.7-1,0.8-18.9,0.1-20.5c-0.3-0.6-1-1.4-1.7-1.7c-0.8-0.4-10.3-0.5-32-0.5h-30.9L139.8,11.3z M198.9,22.2v4.8h-20.5c-19.5,0-20.5,0-21.5,0.9l-1.1,0.9l-0.2,16.6l-0.2,16.5h-4.6h-4.6L146,40.2c0-11.9,0-21.9,0.1-22.3c0.1-0.4,5.9-0.6,26.5-0.6h26.3L198.9,22.2L198.9,22.2z M174.4,71.8c0.5,1.3,1,2.6,1,2.8c0,0.2-22.4,0.4-50.7,0.4c-27.9,0-50.7-0.1-50.7-0.2c0-0.1,0.5-1.3,1-2.8l1-2.6h48.7h48.7L174.4,71.8z M187.4,83.2c2.7,1.3,3.7,3.4,3.7,7.4c0,2.7-0.2,3.9-0.9,5c-1.9,3.1,3,2.9-66.6,2.8l-62.9-0.1L59.2,97c-1.8-1.8-2.5-3.9-2.3-7.4c0.2-3.3,1.3-5.3,3.7-6.4c1.4-0.7,7.3-0.8,63.3-0.8C181.9,82.4,185.8,82.4,187.4,83.2z M179.5,106.2c0,0.7-1.9,15.1-2.1,16.1l-0.2,1.1H124c-42.3,0-53.3-0.1-53.3-0.6c0-0.3-0.5-4.1-1.1-8.5c-0.6-4.4-0.9-8.1-0.8-8.2C69.1,105.8,179.5,105.9,179.5,106.2z M176.3,131.2c0,0.2-0.4,3.9-1,8.3l-1,8h-50.2c-27.6,0-50.2,0-50.2-0.1c-0.5-2.6-2.1-15.9-2-16.1C72.1,130.8,176.3,130.8,176.3,131.2z M173.1,156c0,0.7-0.9,8.5-2.1,17.4c-1.2,8.9-2.1,16.2-2.1,16.2c0,0.1-20.1,0.1-44.7,0.1H79.5l-0.2-1.1c-0.1-0.6-1.1-7.7-2.1-15.8c-1-8.1-2-15.5-2.1-16.5l-0.3-1.7h49.1h49.1L173.1,156L173.1,156z M167.8,198.9c-0.2,1-0.5,3.8-0.8,6.4l-0.6,4.6l-42.2,0.1L82,210.1l-0.6-4.7c-0.3-2.6-0.7-5.5-0.8-6.5l-0.3-1.7h43.9H168L167.8,198.9z M165.2,218.5c0,0.6-0.6,5.3-1.2,10.5l-1.2,9.5l-38.6,0.1l-38.5,0.1l-0.3-1.7c-0.1-1-0.7-5.1-1.2-9.1c-0.5-4.1-1.1-8.1-1.2-8.9l-0.2-1.5H124h41.3L165.2,218.5z"/></g></g></g>
</svg>